# xmcd
#
# Track frame offsets:
#	150
#	9847
#	19252
#	31498
#	40192
#	50136
#	60503
#	71184
#	82925
#	94323
#	107628
#	118640
#	130094
#	141033
#	153160
#	166368
#	178228
#	192176
#	203097
#	215079
#	225871
#	237583
#	249730
#	262496
#	273083
#
# Disc length: 3801 seconds
#
# Revision: 1
# Processed by: cddbd v1.5.1PL2 Copyright (c) Steve Scherf et al.
# Submitted via: audiograbber 1.82.01
#
DISCID=650ed719
DTITLE=Charlie Rich - Complete Singles Plus - The Sun Years
DYEAR=2003
DGENRE=Country
TTITLE0=Whirlwind
TTITLE1=Philadelphia Baby
TTITLE2=Big Man
TTITLE3=Rebound
TTITLE4=Lonely Weekends
TTITLE5=Everything I Do Is Wrong
TTITLE6=Gonna Be Waiting
TTITLE7=School Days
TTITLE8=On My Knees
TTITLE9=Stay
TTITLE10=Who Will the Next Fool Be
TTITLE11=Caught in the Middle
TTITLE12=Just a Little Bit Sweet
TTITLE13=It's Too Late
TTITLE14=Midnite Blues
TTITLE15=Easy Money
TTITLE16=Sittin' and Thinkin'
TTITLE17=Finally Found Out
TTITLE18=There's Another Place I Can't Go
TTITLE19=I Need Your Love
TTITLE20=Break Up
TTITLE21=Goodbye Mary Ann
TTITLE22=Gentle as a Lamb
TTITLE23=Yes Ma'am
TTITLE24=There Won't Be Anyone
EXTD=
EXTT0=
EXTT1=
EXTT2=
EXTT3=
EXTT4=
EXTT5=
EXTT6=
EXTT7=
EXTT8=
EXTT9=
EXTT10=
EXTT11=
EXTT12=
EXTT13=
EXTT14=
EXTT15=
EXTT16=
EXTT17=
EXTT18=
EXTT19=
EXTT20=
EXTT21=
EXTT22=
EXTT23=
EXTT24=
PLAYORDER=
